<svg id="Layer_1" data-name="Layer 1" xmlns="http://www.w3.org/2000/svg" viewBox="0 0 143 62"><defs><style>.cls-1{fill:#fff;}</style></defs><g id="Symbols"><g id="Footer"><g id="Group-12"><g id="NAV_FOOTER" data-name="NAV/FOOTER"><g id="Logo"><path id="Shape" class="cls-1" d="M93.62,0A1.34,1.34,0,0,0,93,.14L88.12,2c-.53.2-.91.35-1.15.47a.58.58,0,0,0-.36.54.64.64,0,0,0,.54.66c.36.09.77.23,1.22.39A3,3,0,0,1,89.6,5,3.13,3.13,0,0,1,90.14,7V43.34a4.74,4.74,0,0,1-.25,1.74,1.76,1.76,0,0,1-.76.87,4,4,0,0,1-1.15.43c-.43.1-.89.22-1.37.37a4.34,4.34,0,0,0-.93.32.7.7,0,0,0-.36.69c0,.34.22.54.68.61a7.65,7.65,0,0,0,1,.11c.63,0,1.43,0,2.42-.14s1.91-.14,2.78-.14a20.43,20.43,0,0,1,2.38.14,21.31,21.31,0,0,0,2.46.14,4.56,4.56,0,0,0,1.11-.14c.36-.1.54-.29.54-.58s-.2-.54-.61-.61a12,12,0,0,1-1.47-.4,2.88,2.88,0,0,1-1.05-.61,2.19,2.19,0,0,1-.54-1.7V34.19q0-.36.51-.36c.14,0,.36.15.65.44l10.86,10.31c.53.53.79.92.79,1.16a.81.81,0,0,1-.39.65,2.13,2.13,0,0,1-1,.36,10.21,10.21,0,0,0-1.51.32.7.7,0,0,0-.57.69.57.57,0,0,0,.5.61,9.06,9.06,0,0,0,1.66.11,25.12,25.12,0,0,0,2.59-.14,26.22,26.22,0,0,1,2.73-.14c1.1,0,2.11,0,3,.14s1.75.14,2.52.14c1.25,0,1.87-.24,1.87-.72a.65.65,0,0,0-.46-.58l-1.26-.54c-.53-.22-1.14-.5-1.84-.83a8.86,8.86,0,0,1-2.12-1.52L101.18,32.94c-.1-.1-.22-.23-.36-.4a.94.94,0,0,1-.22-.62c0-.19.63-.71,1.87-1.55s2.68-1.75,4.29-2.71,3.16-1.87,4.67-2.71,2.53-1.39,3.06-1.63c.24-.09.56-.2,1-.32s.81-.26,1.19-.4a4.88,4.88,0,0,0,1-.47c.26-.17.4-.35.4-.54a.68.68,0,0,0-.43-.73,3.14,3.14,0,0,0-.94-.14c-.72,0-1.57,0-2.55.07s-1.94.07-2.85.07-1.93,0-2.91-.07-1.86-.07-2.63-.07a1.15,1.15,0,0,0-.68.22.59.59,0,0,0-.32.5.77.77,0,0,0,.43.69c.28.17.6.34.93.51a4,4,0,0,1,.94.65,1.47,1.47,0,0,1,.43,1.12c0,.24-.28.59-.83,1.05s-1.23,1-2,1.56-1.71,1.18-2.7,1.81S100,30,99.09,30.53s-1.62.91-2.26,1.23a5.74,5.74,0,0,1-1.12.47c-.43,0-.65-.39-.65-1.16V1.3a1.49,1.49,0,0,0-.25-1A.77.77,0,0,0,94.27,0ZM20.88,3.49c-2.3,0-4.36.07-6.16.21s-3.59.21-5.36.21H2.81L2,3.94a6.5,6.5,0,0,0-.9.15,2,2,0,0,0-.76.36A.85.85,0,0,0,0,5.14c0,.38.15.62.47.69s.87.15,1.69.25c.48,0,1,.09,1.54.11a15.67,15.67,0,0,1,1.59.14,4.38,4.38,0,0,1,1.26.37.81.81,0,0,1,.5.76v34A8.24,8.24,0,0,1,6.76,44,3.41,3.41,0,0,1,6,45.29a2.53,2.53,0,0,1-1,.65,6.56,6.56,0,0,1-1.15.25,4.93,4.93,0,0,0-2.16.73,1.18,1.18,0,0,0-.5.86c0,.38.17.59.5.63a5.62,5.62,0,0,0,.8.07c.86,0,1.89,0,3.09-.14s2.33-.14,3.38-.14h17a24.25,24.25,0,0,0,8.68-1.55,22.91,22.91,0,0,0,7.1-4.24,20.19,20.19,0,0,0,4.79-6.29,17.23,17.23,0,0,0,1.77-7.67A26.94,26.94,0,0,0,46.1,17.2a21.34,21.34,0,0,0-5.87-7.78,24.2,24.2,0,0,0-8.68-4.48A37.85,37.85,0,0,0,20.88,3.49ZM19.29,5.65a23,23,0,0,1,4.77.54,23.65,23.65,0,0,1,5,1.7,26.6,26.6,0,0,1,4.73,2.9,19.85,19.85,0,0,1,4,4.12,19.65,19.65,0,0,1,2.74,5.43,21,21,0,0,1,1,6.73,19.46,19.46,0,0,1-1,6.55,17.48,17.48,0,0,1-2.67,5,18.75,18.75,0,0,1-3.75,3.65,22.41,22.41,0,0,1-4.19,2.43A23,23,0,0,1,25.86,46a15.3,15.3,0,0,1-3.39.44A12.82,12.82,0,0,1,19.08,46a9.33,9.33,0,0,1-3-1.33A7.23,7.23,0,0,1,14,42.41a6.43,6.43,0,0,1-.79-3.26V8a3.43,3.43,0,0,1,.1-.8A1.31,1.31,0,0,1,14,6.41a5.77,5.77,0,0,1,1.81-.54,20.38,20.38,0,0,1,3.46-.22ZM131.93,19.53A11.27,11.27,0,0,0,126.11,21a13.6,13.6,0,0,0-4.06,3.66,15.72,15.72,0,0,0-2.41,4.93,19,19,0,0,0-.79,5.25q0,6.81,3.26,10.76t9.22,4a12.26,12.26,0,0,0,4.79-.84,13.28,13.28,0,0,0,3.27-1.89,8.72,8.72,0,0,0,1.87-1.95,3.73,3.73,0,0,0,.58-1.13c0-.38-.22-.57-.65-.57a1,1,0,0,0-.79.47,7.36,7.36,0,0,1-1,1,6.23,6.23,0,0,1-1.8,1,9.55,9.55,0,0,1-3.24.43A11.81,11.81,0,0,1,129,45a8.15,8.15,0,0,1-3.16-2.72,10,10,0,0,1-1.52-3.85,25.26,25.26,0,0,1-.39-4.49V32.41a2.77,2.77,0,0,1,.14-1h17.5c.63,0,1-.11,1.19-.32a2.5,2.5,0,0,0,.25-1.34,9.35,9.35,0,0,0-.58-2.89,11,11,0,0,0-1.86-3.37,11.12,11.12,0,0,0-3.42-2.78,10.76,10.76,0,0,0-5.21-1.16ZM52,20.72a9,9,0,0,0-1.29.07.53.53,0,0,0-.51.58.59.59,0,0,0,.43.54c.29.12.87.3,1.73.55.43.09.89.21,1.37.36a1,1,0,0,1,.72,1c0,1.06,0,2.26,0,3.58s0,2.69,0,4.09,0,2.71,0,4.06,0,2.58,0,3.69a20.84,20.84,0,0,0,.39,4.2A8.8,8.8,0,0,0,56,46.71a6.18,6.18,0,0,0,2.66,2.09,10.83,10.83,0,0,0,4.22.73,10.32,10.32,0,0,0,3.85-.68,15.92,15.92,0,0,0,2.95-1.51,22.91,22.91,0,0,0,2.05-1.48A2.36,2.36,0,0,1,73,45.21q.51,0,.51.87v1.66a3.77,3.77,0,0,0,.07.83c0,.22.21.33.49.33a20.29,20.29,0,0,0,2.68-.43c1.46-.28,3.45-.62,6-1a5.55,5.55,0,0,0,1.11-.28.57.57,0,0,0,.33-.58c0-.38-.28-.59-.83-.64s-1.52-.07-2.92-.07a3,3,0,0,1-1.18-.29c-.46-.19-.69-.67-.69-1.45,0-3.66,0-7.32.14-11s.14-7.3.14-11c0-.68-.19-1.1-.58-1.27a2.44,2.44,0,0,0-.94-.25c-.72,0-1.43,0-2.13.07s-1.41.07-2.13.07-1.23,0-1.83-.07-1.21-.07-1.84-.07a5.34,5.34,0,0,0-1.08.11c-.33.07-.5.23-.5.47s.27.53.83.72l1.26.44,2,.54c.48.12.85.23,1.12.32a.85.85,0,0,1,.5.37,1.12,1.12,0,0,1,.11.5c0,2.61,0,5.19-.07,7.74s-.07,5.14-.07,7.74a11.07,11.07,0,0,1-.25,2.25A4.23,4.23,0,0,1,72.12,44a6.29,6.29,0,0,1-2.55,1.48,14.9,14.9,0,0,1-4.7.58,6.61,6.61,0,0,1-4.17-1.19,4.14,4.14,0,0,1-1.5-3.44q0-4.84.07-9.66c0-3.21.06-6.42.06-9.66A2.22,2.22,0,0,0,59.15,21c-.12-.19-.42-.29-.9-.29s-1.07,0-1.6.07-1.06.07-1.59.07-1.05,0-1.55-.07-1-.07-1.55-.07Zm81,.56a5.76,5.76,0,0,1,3.81,1.26,3.94,3.94,0,0,1,1.51,3.15,4.61,4.61,0,0,1-.25,1.66,2.2,2.2,0,0,1-1,1.08,6.43,6.43,0,0,1-2.23.62,32.26,32.26,0,0,1-3.82.18c-1.53,0-2.72,0-3.56,0s-1.46-.06-1.87-.11a1.38,1.38,0,0,1-.72-.18.44.44,0,0,1-.11-.32,5.06,5.06,0,0,1,.58-2.1,9.48,9.48,0,0,1,1.62-2.38,9.38,9.38,0,0,1,2.59-2,7.17,7.17,0,0,1,3.49-.83ZM96.08,53.88a2.31,2.31,0,0,0-2.59,2.19c0,1.41.8,1.82,2.45,2.32,1.31.39,1.77.7,1.77,1.3,0,.77-.52,1.15-1.62,1.15a2.88,2.88,0,0,1-2-.93l-.84.82A3.61,3.61,0,0,0,96,62c2,0,2.9-1,2.9-2.38s-1-1.91-2.51-2.38c-1.35-.4-1.71-.67-1.71-1.22s.39-1,1.31-1a2.34,2.34,0,0,1,1.82.75l.83-.84a3.48,3.48,0,0,0-2.56-1.07ZM5.06,54v4.57c0,2.17,1,3.43,3,3.43s3-1.2,3-3.41V54H9.84v4.62c0,1.43-.58,2.2-1.81,2.2S6.24,60,6.24,58.53V54ZM36.7,54v7.88h1.18V54Zm71.84,0v7.88h1.17V54Zm25.16,0,2.81,4.76v3.12h1.17V58.76L140.49,54h-1.35l-1.23,2.18c-.28.51-.67,1.27-.81,1.56-.13-.29-.53-1.08-.8-1.57L135.08,54ZM20.83,54v7.88H22V57.79c0-.44,0-1.53,0-1.82.12.2.39.68.58,1l3.12,4.94h1.12V54H25.64v4.06c0,.44,0,1.57,0,1.86-.12-.2-.45-.79-.65-1.11L22,54Zm26.49,0L50,61.88h1.25L54,54H52.71L51.1,59c-.15.46-.37,1.17-.44,1.45-.07-.28-.29-1-.44-1.44l-1.63-5Zm16,0v7.88h5.21V60.73h-4V58.24h2.25V57.1H64.51v-2h3.87V54Zm14.71,0v7.88H79.2V58.76H81l1.56,3.12h1.35l-1.6-3.22A2.19,2.19,0,0,0,84,56.35,2.26,2.26,0,0,0,81.49,54Zm41.1,0v1.16h2.28v6.72h1.18V55.16h2.28V54ZM79.2,55.12h2.29a1.2,1.2,0,0,1,1.33,1.27,1.19,1.19,0,0,1-1.33,1.26H79.2Z"/></g></g></g></g></g></svg>